<svg aria-hidden="true" xmlns="http://www.w3.org/2000/svg" xmlns:xlink="http://www.w3.org/1999/xlink"><symbol viewBox="0 0 20 20" id="fb" xmlns="http://www.w3.org/2000/svg">
<path d="M19.2 0H0.8C0.3575 0 0 0.3575 0 0.8V19.2C0 19.6425 0.3575 20 0.8 20H19.2C19.6425 20 20 19.6425 20 19.2V0.8C20 0.3575 19.6425 0 19.2 0ZM16.89 5.8375H15.2925C14.04 5.8375 13.7975 6.4325 13.7975 7.3075V9.235H16.7875L16.3975 12.2525H13.7975V20H10.68V12.255H8.0725V9.235H10.68V7.01C10.68 4.4275 12.2575 3.02 14.5625 3.02C15.6675 3.02 16.615 3.1025 16.8925 3.14V5.8375H16.89Z"/>

</symbol><symbol viewBox="0 0 20 20" id="linkedin" xmlns="http://www.w3.org/2000/svg">
<path d="M19.2 0H0.8C0.3575 0 0 0.3575 0 0.8V19.2C0 19.6425 0.3575 20 0.8 20H19.2C19.6425 20 20 19.6425 20 19.2V0.8C20 0.3575 19.6425 0 19.2 0ZM5.9325 17.0425H2.965V7.4975H5.9325V17.0425ZM4.45 6.1925C4.10982 6.1925 3.77727 6.09162 3.49442 5.90263C3.21157 5.71363 2.99111 5.445 2.86093 5.13072C2.73074 4.81643 2.69668 4.47059 2.76305 4.13694C2.82942 3.8033 2.99323 3.49682 3.23378 3.25628C3.47432 3.01573 3.7808 2.85192 4.11444 2.78555C4.44809 2.71918 4.79393 2.75324 5.10822 2.88343C5.4225 3.01361 5.69113 3.23407 5.88013 3.51692C6.06912 3.79977 6.17 4.13232 6.17 4.4725C6.1675 5.4225 5.3975 6.1925 4.45 6.1925ZM17.0425 17.0425H14.0775V12.4C14.0775 11.2925 14.0575 9.87 12.535 9.87C10.9925 9.87 10.755 11.075 10.755 12.32V17.0425H7.7925V7.4975H10.6375V8.8025H10.6775C11.0725 8.0525 12.04 7.26 13.485 7.26C16.49 7.26 17.0425 9.2375 17.0425 11.8075V17.0425Z"/>

</symbol><symbol viewBox="0 0 20 20" id="twitter" xmlns="http://www.w3.org/2000/svg">
<path d="M0 0V20H20V0H0ZM16 7V7.375C16 11.5 12.875 16.125 7.25 16.125C5.5 16.125 3.875 15.625 2.5 14.75H3.25C4.75 14.75 6 14.25 7.125 13.375C5.75 13.375 4.625 12.5 4.25 11.25H4.875C5.125 11.25 5.375 11.25 5.625 11.125C4.25 10.875 3.125 9.625 3.125 8.125C3.5 8.375 4 8.5 4.5 8.5C3.625 8 3.125 7 3.125 6C3.125 5.375 3.25 4.875 3.5 4.5C5 6.375 7.375 7.5 9.875 7.625C9.875 7.375 9.75 7.125 9.75 6.875C9.75 5.125 11.125 3.75 12.875 3.75C13.75 3.75 14.5 4.125 15.125 4.75C15.875 4.625 16.5 4.375 17.125 4C16.875 4.75 16.375 5.375 15.75 5.75C16.375 5.625 17 5.5 17.5 5.25C17.125 6 16.625 6.5 16 7Z"/>
</symbol></svg>